<svg width="24" height="24" viewBox="0 0 24 24" fill="none" xmlns="http://www.w3.org/2000/svg">
<path d="M18.364 11.2928L12.99 16.6668L12.99 4.92881C12.99 4.36312 12.5657 3.93886 12.0001 3.93886C11.4344 3.93886 11.0101 4.36313 11.0101 4.92881L11.0101 16.6668L5.63609 11.2928C5.21183 10.8685 4.64614 10.8685 4.22188 11.2928C3.79761 11.717 3.79761 12.2827 4.22188 12.707L11.2929 19.7781C11.3637 19.8488 11.5051 19.9902 11.6465 19.9902C11.8586 20.0609 12.1415 20.0609 12.3536 19.9902C12.495 19.9902 12.6364 19.8488 12.7072 19.7781L19.7782 12.707C20.2025 12.2827 20.2025 11.717 19.7782 11.2928C19.354 10.8685 18.7883 10.8685 18.364 11.2928Z" fill="#3A3F4A"/>
</svg>
