<svg width="18" height="18" viewBox="0 0 18 18" fill="none" xmlns="http://www.w3.org/2000/svg">
<path d="M8.29289 2.63605L13.6669 8.01006L1.92893 8.01006C1.36325 8.01006 0.938982 8.43432 0.938982 9.00001C0.938981 9.56569 1.36325 9.98996 1.92893 9.98996L13.6669 9.98996L8.29289 15.364C7.86863 15.7882 7.86863 16.3539 8.29289 16.7782C8.71716 17.2024 9.28284 17.2024 9.70711 16.7782L16.7782 9.70712C16.8489 9.6364 16.9903 9.49498 16.9903 9.35356C17.061 9.14143 17.061 8.85859 16.9903 8.64646C16.9903 8.50503 16.8489 8.36361 16.7782 8.2929L9.70711 1.22183C9.28284 0.79757 8.71716 0.797571 8.29289 1.22183C7.86863 1.6461 7.86863 2.21178 8.29289 2.63605Z" fill="white"/>
</svg>
