<svg width="18" height="18" viewBox="0 0 18 18" fill="none" xmlns="http://www.w3.org/2000/svg">
<path d="M15.3639 8.29289L9.98988 13.6669L9.98988 1.92893C9.98988 1.36325 9.56562 0.938983 8.99993 0.938982C8.43425 0.938982 8.00998 1.36325 8.00998 1.92893L8.00998 13.6669L2.63597 8.29289C2.2117 7.86863 1.64602 7.86863 1.22176 8.29289C0.797491 8.71716 0.797491 9.28284 1.22176 9.70711L8.29282 16.7782C8.36353 16.8489 8.50495 16.9903 8.64638 16.9903C8.85851 17.061 9.14135 17.061 9.35348 16.9903C9.4949 16.9903 9.63633 16.8489 9.70704 16.7782L16.7781 9.70711C17.2024 9.28284 17.2024 8.71716 16.7781 8.29289C16.3538 7.86863 15.7882 7.86863 15.3639 8.29289Z" fill="white"/>
</svg>
