<svg width="18" height="18" viewBox="0 0 18 18" fill="none" xmlns="http://www.w3.org/2000/svg">
<path d="M8.29289 2.63611L13.6669 8.01012L1.92893 8.01012C1.36325 8.01012 0.938982 8.43439 0.938982 9.00007C0.938981 9.56576 1.36325 9.99002 1.92893 9.99002L13.6669 9.99002L8.29289 15.364C7.86863 15.7883 7.86863 16.354 8.29289 16.7782C8.71716 17.2025 9.28284 17.2025 9.70711 16.7782L16.7782 9.70718C16.8489 9.63647 16.9903 9.49505 16.9903 9.35362C17.061 9.14149 17.061 8.85865 16.9903 8.64652C16.9903 8.50509 16.8489 8.36367 16.7782 8.29296L9.70711 1.2219C9.28284 0.797632 8.71716 0.797632 8.29289 1.2219C7.86863 1.64616 7.86863 2.21185 8.29289 2.63611Z" fill="#1B1D22"/>
</svg>
