<svg width="12" height="12" viewBox="0 0 12 12" fill="none" xmlns="http://www.w3.org/2000/svg">
<path d="M10.5667 3.76663L8.31668 1.5333L9.20002 0.666634C9.3889 0.477745 9.62513 0.383301 9.90868 0.383301C10.1918 0.383301 10.4278 0.477745 10.6167 0.666634L11.4333 1.4833C11.6222 1.6833 11.7222 1.9193 11.7333 2.1913C11.7445 2.46375 11.65 2.69441 11.45 2.8833L10.5667 3.76663ZM1.03335 11.6666C0.866683 11.6666 0.725127 11.6084 0.608683 11.492C0.491794 11.3751 0.43335 11.2333 0.43335 11.0666V9.66663C0.43335 9.58886 0.44735 9.51397 0.47535 9.44197C0.502905 9.36952 0.550016 9.29997 0.616683 9.2333L7.60002 2.24997L9.85002 4.49997L2.86668 11.4833C2.80002 11.55 2.73068 11.5973 2.65868 11.6253C2.58624 11.6529 2.51113 11.6666 2.43335 11.6666H1.03335Z" fill="white"/>
</svg>
